<?xml version="1.0" standalone="no"?>
<!DOCTYPE svg PUBLIC "-//W3C//DTD SVG 20010904//EN"
 "http://www.w3.org/TR/2001/REC-SVG-20010904/DTD/svg10.dtd">
<svg version="1.0" xmlns="http://www.w3.org/2000/svg"
 width="398.000000pt" height="398.000000pt" viewBox="0 0 398.000000 398.000000"
 preserveAspectRatio="xMidYMid meet">
<metadata>
Created by potrace 1.14, written by Peter Selinger 2001-2017
</metadata>
<g transform="translate(0.000000,398.000000) scale(0.100000,-0.100000)"
fill="#000000" stroke="none">
<path d="M1830 3614 c0 -3 20 -28 44 -55 41 -45 74 -102 91 -157 l7 -23 -39
25 c-103 68 -261 48 -354 -44 -46 -46 -66 -81 -108 -189 -35 -88 -47 -99 -168
-157 -163 -78 -239 -156 -289 -295 -19 -53 -21 -153 -4 -194 l13 -30 8 29 c13
48 69 119 69 89 0 -31 -25 -84 -51 -109 -25 -24 -39 -29 -81 -29 -46 0 -53 3
-84 39 -34 39 -34 39 -34 12 0 -96 104 -179 225 -180 l63 0 -7 -41 c-12 -82
-1 -441 15 -467 3 -5 -10 -8 -30 -8 -46 0 -92 -45 -104 -103 -16 -74 3 -260
30 -294 5 -6 10 -38 12 -70 2 -42 11 -74 32 -112 29 -55 100 -125 116 -115 4
3 6 9 3 13 -2 5 7 6 20 3 17 -3 27 1 31 12 3 9 10 16 14 16 7 0 24 -55 36
-114 7 -35 38 -111 61 -148 44 -71 179 -186 301 -256 65 -38 75 -51 42 -53
-23 -2 -20 -1 -76 -17 -44 -13 -107 -54 -164 -107 -21 -20 -51 -35 -75 -40
-21 -4 -51 -13 -66 -21 -35 -17 -89 -72 -89 -88 0 -17 154 -75 285 -109 134
-35 233 -48 395 -52 246 -7 463 31 692 122 l88 35 -20 28 c-28 40 -77 67 -141
81 -44 9 -63 20 -104 61 -57 57 -102 83 -162 93 -76 12 -71 25 40 98 106 70
194 147 240 208 27 36 64 130 87 225 l13 51 28 -15 c26 -15 30 -15 85 13 69
36 89 69 103 170 5 39 19 95 30 127 23 63 32 190 19 255 -12 58 -58 103 -105
103 l-35 0 9 63 c4 34 7 139 6 232 -2 242 -36 374 -132 515 -37 54 -39 60 -30
99 5 23 7 56 4 73 -7 36 -44 108 -57 108 -15 0 -58 76 -77 140 -12 40 -35 82
-55 107 -36 42 -108 83 -148 84 -22 0 -22 1 2 11 23 9 93 6 180 -8 l35 -5 -30
26 c-16 15 -50 36 -75 48 -54 24 -174 34 -221 18 -18 -6 -34 -10 -35 -8 -2 2
-6 20 -9 41 -2 21 -7 48 -11 60 -22 69 -113 147 -192 164 -76 17 -112 22 -112
16z m-590 -2393 c0 -11 -4 -23 -10 -26 -6 -4 -10 5 -10 19 0 14 5 26 10 26 6
0 10 -9 10 -19z m1470 -1 c0 -11 -4 -20 -10 -20 -5 0 -10 9 -10 20 0 11 5 20
10 20 6 0 10 -9 10 -20z"/>
</g>
</svg>
